%TF.GenerationSoftware,KiCad,Pcbnew,6.0.10-86aedd382b~118~ubuntu22.04.1*%
%TF.CreationDate,2023-01-01T10:29:27-05:00*%
%TF.ProjectId,project-nrf-princess-dress,70726f6a-6563-4742-9d6e-72662d707269,rev?*%
%TF.SameCoordinates,Original*%
%TF.FileFunction,Legend,Bot*%
%TF.FilePolarity,Positive*%
%FSLAX46Y46*%
G04 Gerber Fmt 4.6, Leading zero omitted, Abs format (unit mm)*
G04 Created by KiCad (PCBNEW 6.0.10-86aedd382b~118~ubuntu22.04.1) date 2023-01-01 10:29:27*
%MOMM*%
%LPD*%
G01*
G04 APERTURE LIST*
%ADD10C,0.150000*%
G04 APERTURE END LIST*
D10*
X60498690Y-76327380D02*
X60498690Y-77041666D01*
X60546309Y-77184523D01*
X60641547Y-77279761D01*
X60784404Y-77327380D01*
X60879642Y-77327380D01*
X59593928Y-76660714D02*
X59593928Y-77327380D01*
X60022500Y-76660714D02*
X60022500Y-77184523D01*
X59974880Y-77279761D01*
X59879642Y-77327380D01*
X59736785Y-77327380D01*
X59641547Y-77279761D01*
X59593928Y-77232142D01*
X58974880Y-77327380D02*
X59070119Y-77279761D01*
X59117738Y-77184523D01*
X59117738Y-76327380D01*
X58593928Y-77327380D02*
X58593928Y-76660714D01*
X58593928Y-76327380D02*
X58641547Y-76375000D01*
X58593928Y-76422619D01*
X58546309Y-76375000D01*
X58593928Y-76327380D01*
X58593928Y-76422619D01*
X57736785Y-77279761D02*
X57832023Y-77327380D01*
X58022500Y-77327380D01*
X58117738Y-77279761D01*
X58165357Y-77184523D01*
X58165357Y-76803571D01*
X58117738Y-76708333D01*
X58022500Y-76660714D01*
X57832023Y-76660714D01*
X57736785Y-76708333D01*
X57689166Y-76803571D01*
X57689166Y-76898809D01*
X58165357Y-76994047D01*
X55974880Y-76375000D02*
X56070119Y-76327380D01*
X56212976Y-76327380D01*
X56355833Y-76375000D01*
X56451071Y-76470238D01*
X56498690Y-76565476D01*
X56546309Y-76755952D01*
X56546309Y-76898809D01*
X56498690Y-77089285D01*
X56451071Y-77184523D01*
X56355833Y-77279761D01*
X56212976Y-77327380D01*
X56117738Y-77327380D01*
X55974880Y-77279761D01*
X55927261Y-77232142D01*
X55927261Y-76898809D01*
X56117738Y-76898809D01*
X55117738Y-77279761D02*
X55212976Y-77327380D01*
X55403452Y-77327380D01*
X55498690Y-77279761D01*
X55546309Y-77184523D01*
X55546309Y-76803571D01*
X55498690Y-76708333D01*
X55403452Y-76660714D01*
X55212976Y-76660714D01*
X55117738Y-76708333D01*
X55070119Y-76803571D01*
X55070119Y-76898809D01*
X55546309Y-76994047D01*
X54641547Y-77327380D02*
X54641547Y-76660714D01*
X54641547Y-76851190D02*
X54593928Y-76755952D01*
X54546309Y-76708333D01*
X54451071Y-76660714D01*
X54355833Y-76660714D01*
X54117738Y-76660714D02*
X53879642Y-77327380D01*
X53641547Y-76660714D01*
X52832023Y-77327380D02*
X52832023Y-76803571D01*
X52879642Y-76708333D01*
X52974880Y-76660714D01*
X53165357Y-76660714D01*
X53260595Y-76708333D01*
X52832023Y-77279761D02*
X52927261Y-77327380D01*
X53165357Y-77327380D01*
X53260595Y-77279761D01*
X53308214Y-77184523D01*
X53308214Y-77089285D01*
X53260595Y-76994047D01*
X53165357Y-76946428D01*
X52927261Y-76946428D01*
X52832023Y-76898809D01*
X52355833Y-77327380D02*
X52355833Y-76660714D01*
X52355833Y-76327380D02*
X52403452Y-76375000D01*
X52355833Y-76422619D01*
X52308214Y-76375000D01*
X52355833Y-76327380D01*
X52355833Y-76422619D01*
X51927261Y-77279761D02*
X51832023Y-77327380D01*
X51641547Y-77327380D01*
X51546309Y-77279761D01*
X51498690Y-77184523D01*
X51498690Y-77136904D01*
X51546309Y-77041666D01*
X51641547Y-76994047D01*
X51784404Y-76994047D01*
X51879642Y-76946428D01*
X51927261Y-76851190D01*
X51927261Y-76803571D01*
X51879642Y-76708333D01*
X51784404Y-76660714D01*
X51641547Y-76660714D01*
X51546309Y-76708333D01*
X60451071Y-78413571D02*
X60784404Y-78413571D01*
X60784404Y-78937380D02*
X60784404Y-77937380D01*
X60308214Y-77937380D01*
X59927261Y-78937380D02*
X59927261Y-78270714D01*
X59927261Y-78461190D02*
X59879642Y-78365952D01*
X59832023Y-78318333D01*
X59736785Y-78270714D01*
X59641547Y-78270714D01*
X58879642Y-78937380D02*
X58879642Y-78413571D01*
X58927261Y-78318333D01*
X59022500Y-78270714D01*
X59212976Y-78270714D01*
X59308214Y-78318333D01*
X58879642Y-78889761D02*
X58974880Y-78937380D01*
X59212976Y-78937380D01*
X59308214Y-78889761D01*
X59355833Y-78794523D01*
X59355833Y-78699285D01*
X59308214Y-78604047D01*
X59212976Y-78556428D01*
X58974880Y-78556428D01*
X58879642Y-78508809D01*
X58403452Y-78270714D02*
X58403452Y-78937380D01*
X58403452Y-78365952D02*
X58355833Y-78318333D01*
X58260595Y-78270714D01*
X58117738Y-78270714D01*
X58022500Y-78318333D01*
X57974880Y-78413571D01*
X57974880Y-78937380D01*
X57070119Y-78889761D02*
X57165357Y-78937380D01*
X57355833Y-78937380D01*
X57451071Y-78889761D01*
X57498690Y-78842142D01*
X57546309Y-78746904D01*
X57546309Y-78461190D01*
X57498690Y-78365952D01*
X57451071Y-78318333D01*
X57355833Y-78270714D01*
X57165357Y-78270714D01*
X57070119Y-78318333D01*
X57260595Y-78985000D02*
X57165357Y-79032619D01*
X57117738Y-79127857D01*
X57165357Y-79223095D01*
X57260595Y-79270714D01*
X57403452Y-79270714D01*
X56498690Y-78937380D02*
X56593928Y-78889761D01*
X56641547Y-78842142D01*
X56689166Y-78746904D01*
X56689166Y-78461190D01*
X56641547Y-78365952D01*
X56593928Y-78318333D01*
X56498690Y-78270714D01*
X56355833Y-78270714D01*
X56260595Y-78318333D01*
X56212976Y-78365952D01*
X56165357Y-78461190D01*
X56165357Y-78746904D01*
X56212976Y-78842142D01*
X56260595Y-78889761D01*
X56355833Y-78937380D01*
X56498690Y-78937380D01*
X55736785Y-78937380D02*
X55736785Y-78270714D01*
X55736785Y-77937380D02*
X55784404Y-77985000D01*
X55736785Y-78032619D01*
X55689166Y-77985000D01*
X55736785Y-77937380D01*
X55736785Y-78032619D01*
X55308214Y-78889761D02*
X55212976Y-78937380D01*
X55022500Y-78937380D01*
X54927261Y-78889761D01*
X54879642Y-78794523D01*
X54879642Y-78746904D01*
X54927261Y-78651666D01*
X55022500Y-78604047D01*
X55165357Y-78604047D01*
X55260595Y-78556428D01*
X55308214Y-78461190D01*
X55308214Y-78413571D01*
X55260595Y-78318333D01*
X55165357Y-78270714D01*
X55022500Y-78270714D01*
X54927261Y-78318333D01*
X53165357Y-77985000D02*
X53260595Y-77937380D01*
X53403452Y-77937380D01*
X53546309Y-77985000D01*
X53641547Y-78080238D01*
X53689166Y-78175476D01*
X53736785Y-78365952D01*
X53736785Y-78508809D01*
X53689166Y-78699285D01*
X53641547Y-78794523D01*
X53546309Y-78889761D01*
X53403452Y-78937380D01*
X53308214Y-78937380D01*
X53165357Y-78889761D01*
X53117738Y-78842142D01*
X53117738Y-78508809D01*
X53308214Y-78508809D01*
X52308214Y-78889761D02*
X52403452Y-78937380D01*
X52593928Y-78937380D01*
X52689166Y-78889761D01*
X52736785Y-78794523D01*
X52736785Y-78413571D01*
X52689166Y-78318333D01*
X52593928Y-78270714D01*
X52403452Y-78270714D01*
X52308214Y-78318333D01*
X52260595Y-78413571D01*
X52260595Y-78508809D01*
X52736785Y-78604047D01*
X51832023Y-78937380D02*
X51832023Y-78270714D01*
X51832023Y-78461190D02*
X51784404Y-78365952D01*
X51736785Y-78318333D01*
X51641547Y-78270714D01*
X51546309Y-78270714D01*
X51308214Y-78270714D02*
X51070119Y-78937380D01*
X50832023Y-78270714D01*
X50022500Y-78937380D02*
X50022500Y-78413571D01*
X50070119Y-78318333D01*
X50165357Y-78270714D01*
X50355833Y-78270714D01*
X50451071Y-78318333D01*
X50022500Y-78889761D02*
X50117738Y-78937380D01*
X50355833Y-78937380D01*
X50451071Y-78889761D01*
X50498690Y-78794523D01*
X50498690Y-78699285D01*
X50451071Y-78604047D01*
X50355833Y-78556428D01*
X50117738Y-78556428D01*
X50022500Y-78508809D01*
X49546309Y-78937380D02*
X49546309Y-78270714D01*
X49546309Y-77937380D02*
X49593928Y-77985000D01*
X49546309Y-78032619D01*
X49498690Y-77985000D01*
X49546309Y-77937380D01*
X49546309Y-78032619D01*
X49117738Y-78889761D02*
X49022500Y-78937380D01*
X48832023Y-78937380D01*
X48736785Y-78889761D01*
X48689166Y-78794523D01*
X48689166Y-78746904D01*
X48736785Y-78651666D01*
X48832023Y-78604047D01*
X48974880Y-78604047D01*
X49070119Y-78556428D01*
X49117738Y-78461190D01*
X49117738Y-78413571D01*
X49070119Y-78318333D01*
X48974880Y-78270714D01*
X48832023Y-78270714D01*
X48736785Y-78318333D01*
X60260595Y-80547380D02*
X60832023Y-80547380D01*
X60546309Y-80547380D02*
X60546309Y-79547380D01*
X60641547Y-79690238D01*
X60736785Y-79785476D01*
X60832023Y-79833095D01*
X59070119Y-79880714D02*
X59070119Y-80737857D01*
X59117738Y-80833095D01*
X59212976Y-80880714D01*
X59260595Y-80880714D01*
X59070119Y-79547380D02*
X59117738Y-79595000D01*
X59070119Y-79642619D01*
X59022500Y-79595000D01*
X59070119Y-79547380D01*
X59070119Y-79642619D01*
X58165357Y-80547380D02*
X58165357Y-80023571D01*
X58212976Y-79928333D01*
X58308214Y-79880714D01*
X58498690Y-79880714D01*
X58593928Y-79928333D01*
X58165357Y-80499761D02*
X58260595Y-80547380D01*
X58498690Y-80547380D01*
X58593928Y-80499761D01*
X58641547Y-80404523D01*
X58641547Y-80309285D01*
X58593928Y-80214047D01*
X58498690Y-80166428D01*
X58260595Y-80166428D01*
X58165357Y-80118809D01*
X57689166Y-79880714D02*
X57689166Y-80547380D01*
X57689166Y-79975952D02*
X57641547Y-79928333D01*
X57546309Y-79880714D01*
X57403452Y-79880714D01*
X57308214Y-79928333D01*
X57260595Y-80023571D01*
X57260595Y-80547380D01*
X56070119Y-79642619D02*
X56022500Y-79595000D01*
X55927261Y-79547380D01*
X55689166Y-79547380D01*
X55593928Y-79595000D01*
X55546309Y-79642619D01*
X55498690Y-79737857D01*
X55498690Y-79833095D01*
X55546309Y-79975952D01*
X56117738Y-80547380D01*
X55498690Y-80547380D01*
X54879642Y-79547380D02*
X54784404Y-79547380D01*
X54689166Y-79595000D01*
X54641547Y-79642619D01*
X54593928Y-79737857D01*
X54546309Y-79928333D01*
X54546309Y-80166428D01*
X54593928Y-80356904D01*
X54641547Y-80452142D01*
X54689166Y-80499761D01*
X54784404Y-80547380D01*
X54879642Y-80547380D01*
X54974880Y-80499761D01*
X55022500Y-80452142D01*
X55070119Y-80356904D01*
X55117738Y-80166428D01*
X55117738Y-79928333D01*
X55070119Y-79737857D01*
X55022500Y-79642619D01*
X54974880Y-79595000D01*
X54879642Y-79547380D01*
X54165357Y-79642619D02*
X54117738Y-79595000D01*
X54022500Y-79547380D01*
X53784404Y-79547380D01*
X53689166Y-79595000D01*
X53641547Y-79642619D01*
X53593928Y-79737857D01*
X53593928Y-79833095D01*
X53641547Y-79975952D01*
X54212976Y-80547380D01*
X53593928Y-80547380D01*
X53260595Y-79547380D02*
X52641547Y-79547380D01*
X52974880Y-79928333D01*
X52832023Y-79928333D01*
X52736785Y-79975952D01*
X52689166Y-80023571D01*
X52641547Y-80118809D01*
X52641547Y-80356904D01*
X52689166Y-80452142D01*
X52736785Y-80499761D01*
X52832023Y-80547380D01*
X53117738Y-80547380D01*
X53212976Y-80499761D01*
X53260595Y-80452142D01*
X60879642Y-81490714D02*
X60641547Y-82157380D01*
X60403452Y-81490714D01*
X59498690Y-82157380D02*
X60070119Y-82157380D01*
X59784404Y-82157380D02*
X59784404Y-81157380D01*
X59879642Y-81300238D01*
X59974880Y-81395476D01*
X60070119Y-81443095D01*
X59070119Y-82062142D02*
X59022500Y-82109761D01*
X59070119Y-82157380D01*
X59117738Y-82109761D01*
X59070119Y-82062142D01*
X59070119Y-82157380D01*
X58403452Y-81157380D02*
X58308214Y-81157380D01*
X58212976Y-81205000D01*
X58165357Y-81252619D01*
X58117738Y-81347857D01*
X58070119Y-81538333D01*
X58070119Y-81776428D01*
X58117738Y-81966904D01*
X58165357Y-82062142D01*
X58212976Y-82109761D01*
X58308214Y-82157380D01*
X58403452Y-82157380D01*
X58498690Y-82109761D01*
X58546309Y-82062142D01*
X58593928Y-81966904D01*
X58641547Y-81776428D01*
X58641547Y-81538333D01*
X58593928Y-81347857D01*
X58546309Y-81252619D01*
X58498690Y-81205000D01*
X58403452Y-81157380D01*
X57641547Y-82062142D02*
X57593928Y-82109761D01*
X57641547Y-82157380D01*
X57689166Y-82109761D01*
X57641547Y-82062142D01*
X57641547Y-82157380D01*
X56974880Y-81157380D02*
X56879642Y-81157380D01*
X56784404Y-81205000D01*
X56736785Y-81252619D01*
X56689166Y-81347857D01*
X56641547Y-81538333D01*
X56641547Y-81776428D01*
X56689166Y-81966904D01*
X56736785Y-82062142D01*
X56784404Y-82109761D01*
X56879642Y-82157380D01*
X56974880Y-82157380D01*
X57070119Y-82109761D01*
X57117738Y-82062142D01*
X57165357Y-81966904D01*
X57212976Y-81776428D01*
X57212976Y-81538333D01*
X57165357Y-81347857D01*
X57117738Y-81252619D01*
X57070119Y-81205000D01*
X56974880Y-81157380D01*
M02*
