M48
INCH,TZ
T1C0.0118
T2C0.0157
T3C0.1063
%
G90
G05
T1
X25756Y-10193
X27016Y-11217
X27094Y-10193
X27173Y-32594
X31622Y-11728
X31622Y-18815
X31661Y-25902
X32331Y-13303
X32331Y-20390
X32331Y-27476
X33787Y-18815
X33787Y-25902
X33827Y-11728
X35677Y-32870
T2
X19496Y-26492
X22331Y-33697
X27606Y-23539
X31071Y-33146
X31898Y-14484
X31898Y-21571
X31898Y-28657
X33118Y-28657
X38472Y-13382
X38472Y-20469
X38472Y-27555
T3
X19339Y-11335
X19339Y-33776
X39024Y-11335
X39024Y-33776
T0
M30
