%TF.GenerationSoftware,KiCad,Pcbnew,6.0.10-86aedd382b~118~ubuntu22.04.1*%
%TF.CreationDate,2023-01-01T10:29:27-05:00*%
%TF.ProjectId,project-nrf-princess-dress,70726f6a-6563-4742-9d6e-72662d707269,rev?*%
%TF.SameCoordinates,Original*%
%TF.FileFunction,Copper,L2,Bot*%
%TF.FilePolarity,Positive*%
%FSLAX46Y46*%
G04 Gerber Fmt 4.6, Leading zero omitted, Abs format (unit mm)*
G04 Created by KiCad (PCBNEW 6.0.10-86aedd382b~118~ubuntu22.04.1) date 2023-01-01 10:29:27*
%MOMM*%
%LPD*%
G01*
G04 APERTURE LIST*
%TA.AperFunction,ComponentPad*%
%ADD10C,4.500000*%
%TD*%
%TA.AperFunction,ViaPad*%
%ADD11C,0.800000*%
%TD*%
%TA.AperFunction,ViaPad*%
%ADD12C,0.600000*%
%TD*%
%TA.AperFunction,Conductor*%
%ADD13C,1.000000*%
%TD*%
%TA.AperFunction,Conductor*%
%ADD14C,0.250000*%
%TD*%
G04 APERTURE END LIST*
D10*
%TO.P,H4,1*%
%TO.N,GND*%
X99120000Y-85790000D03*
%TD*%
%TO.P,H3,1*%
%TO.N,GND*%
X49120000Y-85790000D03*
%TD*%
%TO.P,H2,1*%
%TO.N,GND*%
X99120000Y-28790000D03*
%TD*%
%TO.P,H1,1*%
%TO.N,GND*%
X49120000Y-28790000D03*
%TD*%
D11*
%TO.N,GND*%
X78920000Y-84190000D03*
X81020000Y-54790000D03*
X81020000Y-36790000D03*
X56720000Y-85590000D03*
X49520000Y-67290000D03*
D12*
X85920000Y-29790000D03*
X80320000Y-29790000D03*
D11*
X97720000Y-33990000D03*
X97720000Y-51990000D03*
X97720000Y-69990000D03*
D12*
X80320000Y-47790000D03*
X85820000Y-47790000D03*
X85820000Y-65790000D03*
X80420000Y-65790000D03*
X68820000Y-25890000D03*
X65420000Y-25890000D03*
X68620000Y-28490000D03*
X82120000Y-51790000D03*
X82120000Y-69790000D03*
X82120000Y-33790000D03*
D11*
X81020000Y-72790000D03*
%TO.N,+BATT*%
X84120000Y-72790000D03*
X70119952Y-59790000D03*
D12*
%TO.N,Net-(Q1-Pad1)*%
X90620000Y-83490000D03*
X69020000Y-82790000D03*
%TD*%
D13*
%TO.N,+BATT*%
X70119952Y-67789952D02*
X70119952Y-59790000D01*
X77120000Y-74790000D02*
X70119952Y-67789952D01*
X84120000Y-72790000D02*
X82120000Y-74790000D01*
X82120000Y-74790000D02*
X77120000Y-74790000D01*
D14*
%TO.N,Net-(Q1-Pad1)*%
X89920000Y-82790000D02*
X69020000Y-82790000D01*
X90620000Y-83490000D02*
X89920000Y-82790000D01*
%TD*%
%TA.AperFunction,Conductor*%
%TO.N,GND*%
G36*
X99090018Y-25300000D02*
G01*
X99104852Y-25302310D01*
X99104855Y-25302310D01*
X99113724Y-25303691D01*
X99122627Y-25302527D01*
X99122628Y-25302527D01*
X99133076Y-25301161D01*
X99155594Y-25300249D01*
X99456051Y-25315010D01*
X99468345Y-25316221D01*
X99795034Y-25364680D01*
X99807156Y-25367090D01*
X99901196Y-25390646D01*
X100127523Y-25447339D01*
X100139355Y-25450928D01*
X100450311Y-25562190D01*
X100461735Y-25566922D01*
X100529500Y-25598972D01*
X100760292Y-25708128D01*
X100771188Y-25713953D01*
X100912101Y-25798412D01*
X101054467Y-25883744D01*
X101064748Y-25890614D01*
X101330017Y-26087350D01*
X101339556Y-26095177D01*
X101584282Y-26316985D01*
X101593015Y-26325718D01*
X101814823Y-26570444D01*
X101822650Y-26579983D01*
X101887770Y-26667787D01*
X102019386Y-26845252D01*
X102026256Y-26855533D01*
X102111588Y-26997899D01*
X102137435Y-27041022D01*
X102196045Y-27138807D01*
X102201874Y-27149712D01*
X102343078Y-27448265D01*
X102347810Y-27459689D01*
X102459072Y-27770645D01*
X102462661Y-27782477D01*
X102542909Y-28102841D01*
X102545320Y-28114966D01*
X102591378Y-28425461D01*
X102593779Y-28441650D01*
X102594990Y-28453949D01*
X102595010Y-28454333D01*
X102609390Y-28747034D01*
X102608042Y-28772598D01*
X102606309Y-28783724D01*
X102608771Y-28802552D01*
X102610436Y-28815283D01*
X102611500Y-28831621D01*
X102611500Y-85740633D01*
X102610000Y-85760018D01*
X102609247Y-85764858D01*
X102606309Y-85783724D01*
X102607473Y-85792627D01*
X102607473Y-85792628D01*
X102608839Y-85803076D01*
X102609751Y-85825594D01*
X102596791Y-86089410D01*
X102594991Y-86126045D01*
X102593779Y-86138345D01*
X102545321Y-86465031D01*
X102542910Y-86477156D01*
X102533996Y-86512740D01*
X102462661Y-86797523D01*
X102459072Y-86809355D01*
X102347810Y-87120311D01*
X102343078Y-87131735D01*
X102201874Y-87430288D01*
X102196045Y-87441193D01*
X102026256Y-87724467D01*
X102019386Y-87734748D01*
X101822650Y-88000017D01*
X101814823Y-88009556D01*
X101593020Y-88254277D01*
X101584282Y-88263015D01*
X101339556Y-88484823D01*
X101330017Y-88492650D01*
X101135517Y-88636901D01*
X101064748Y-88689386D01*
X101054467Y-88696256D01*
X100912101Y-88781588D01*
X100771188Y-88866047D01*
X100760292Y-88871872D01*
X100625870Y-88935448D01*
X100461735Y-89013078D01*
X100450311Y-89017810D01*
X100139355Y-89129072D01*
X100127523Y-89132661D01*
X99901196Y-89189354D01*
X99807156Y-89212910D01*
X99795034Y-89215320D01*
X99468345Y-89263779D01*
X99456051Y-89264990D01*
X99162961Y-89279390D01*
X99137402Y-89278042D01*
X99126276Y-89276309D01*
X99094714Y-89280436D01*
X99078379Y-89281500D01*
X49169367Y-89281500D01*
X49149982Y-89280000D01*
X49135148Y-89277690D01*
X49135145Y-89277690D01*
X49126276Y-89276309D01*
X49117373Y-89277473D01*
X49117372Y-89277473D01*
X49106924Y-89278839D01*
X49084406Y-89279751D01*
X48783949Y-89264990D01*
X48771655Y-89263779D01*
X48444966Y-89215320D01*
X48432844Y-89212910D01*
X48338804Y-89189354D01*
X48112477Y-89132661D01*
X48100645Y-89129072D01*
X47789689Y-89017810D01*
X47778265Y-89013078D01*
X47614130Y-88935448D01*
X47479708Y-88871872D01*
X47468812Y-88866047D01*
X47327899Y-88781588D01*
X47185533Y-88696256D01*
X47175252Y-88689386D01*
X47104483Y-88636901D01*
X46909983Y-88492650D01*
X46900444Y-88484823D01*
X46655718Y-88263015D01*
X46646980Y-88254277D01*
X46425177Y-88009556D01*
X46417350Y-88000017D01*
X46352059Y-87911982D01*
X47363142Y-87911982D01*
X47370668Y-87922415D01*
X47516463Y-88039848D01*
X47522648Y-88044244D01*
X47798363Y-88216195D01*
X47805034Y-88219817D01*
X48099414Y-88357402D01*
X48106468Y-88360195D01*
X48415257Y-88461420D01*
X48422570Y-88463339D01*
X48741298Y-88526738D01*
X48748789Y-88527764D01*
X49072823Y-88552413D01*
X49080386Y-88552531D01*
X49405021Y-88538074D01*
X49412562Y-88537282D01*
X49733115Y-88483926D01*
X49740479Y-88482240D01*
X50052315Y-88390757D01*
X50059424Y-88388198D01*
X50358003Y-88259919D01*
X50364770Y-88256515D01*
X50645764Y-88093301D01*
X50652071Y-88089111D01*
X50870005Y-87924588D01*
X50878461Y-87913197D01*
X50877794Y-87911982D01*
X97363142Y-87911982D01*
X97370668Y-87922415D01*
X97516463Y-88039848D01*
X97522648Y-88044244D01*
X97798363Y-88216195D01*
X97805034Y-88219817D01*
X98099414Y-88357402D01*
X98106468Y-88360195D01*
X98415257Y-88461420D01*
X98422570Y-88463339D01*
X98741298Y-88526738D01*
X98748789Y-88527764D01*
X99072823Y-88552413D01*
X99080386Y-88552531D01*
X99405021Y-88538074D01*
X99412562Y-88537282D01*
X99733115Y-88483926D01*
X99740479Y-88482240D01*
X100052315Y-88390757D01*
X100059424Y-88388198D01*
X100358003Y-88259919D01*
X100364770Y-88256515D01*
X100645764Y-88093301D01*
X100652071Y-88089111D01*
X100870005Y-87924588D01*
X100878461Y-87913197D01*
X100871743Y-87900953D01*
X99132812Y-86162022D01*
X99118868Y-86154408D01*
X99117035Y-86154539D01*
X99110420Y-86158790D01*
X97370257Y-87898953D01*
X97363142Y-87911982D01*
X50877794Y-87911982D01*
X50871743Y-87900953D01*
X49132812Y-86162022D01*
X49118868Y-86154408D01*
X49117035Y-86154539D01*
X49110420Y-86158790D01*
X47370257Y-87898953D01*
X47363142Y-87911982D01*
X46352059Y-87911982D01*
X46220614Y-87734748D01*
X46213744Y-87724467D01*
X46043955Y-87441193D01*
X46038126Y-87430288D01*
X45896922Y-87131735D01*
X45892190Y-87120311D01*
X45780928Y-86809355D01*
X45777339Y-86797523D01*
X45706004Y-86512740D01*
X45697090Y-86477156D01*
X45694679Y-86465031D01*
X45646220Y-86138343D01*
X45645009Y-86126045D01*
X45643210Y-86089410D01*
X45636663Y-85956158D01*
X45630795Y-85836695D01*
X45632387Y-85809619D01*
X45633576Y-85802552D01*
X45633729Y-85790000D01*
X45630128Y-85764858D01*
X46357299Y-85764858D01*
X46373456Y-86089410D01*
X46374287Y-86096939D01*
X46429318Y-86417198D01*
X46431051Y-86424585D01*
X46524156Y-86735909D01*
X46526759Y-86743022D01*
X46656595Y-87040913D01*
X46660037Y-87047669D01*
X46824720Y-87327803D01*
X46828943Y-87334088D01*
X46985792Y-87539608D01*
X46997316Y-87548069D01*
X47009382Y-87541408D01*
X48747978Y-85802812D01*
X48754356Y-85791132D01*
X49484408Y-85791132D01*
X49484539Y-85792965D01*
X49488790Y-85799580D01*
X51228825Y-87539615D01*
X51241948Y-87546781D01*
X51252250Y-87539391D01*
X51361429Y-87405285D01*
X51365842Y-87399144D01*
X51539248Y-87124312D01*
X51542895Y-87117677D01*
X51682025Y-86824011D01*
X51684850Y-86816984D01*
X51787696Y-86508715D01*
X51789650Y-86501424D01*
X51854716Y-86183033D01*
X51855784Y-86175529D01*
X51882253Y-85850100D01*
X51882458Y-85845625D01*
X51883018Y-85792221D01*
X51882908Y-85787789D01*
X51879169Y-85725774D01*
X71258102Y-85725774D01*
X71258302Y-85731103D01*
X71258302Y-85731105D01*
X71260612Y-85792628D01*
X71266751Y-85956158D01*
X71314093Y-86181791D01*
X71398776Y-86396221D01*
X71401543Y-86400780D01*
X71401544Y-86400783D01*
X71440531Y-86465031D01*
X71518377Y-86593317D01*
X71521874Y-86597347D01*
X71642112Y-86735909D01*
X71669477Y-86767445D01*
X71673608Y-86770832D01*
X71843627Y-86910240D01*
X71843633Y-86910244D01*
X71847755Y-86913624D01*
X71852391Y-86916263D01*
X71852394Y-86916265D01*
X71925707Y-86957997D01*
X72048114Y-87027675D01*
X72264825Y-87106337D01*
X72270074Y-87107286D01*
X72270077Y-87107287D01*
X72487608Y-87146623D01*
X72487615Y-87146624D01*
X72491692Y-87147361D01*
X72509414Y-87148197D01*
X72514356Y-87148430D01*
X72514363Y-87148430D01*
X72515844Y-87148500D01*
X72677890Y-87148500D01*
X72744809Y-87142822D01*
X72844409Y-87134371D01*
X72844413Y-87134370D01*
X72849720Y-87133920D01*
X72854875Y-87132582D01*
X72854881Y-87132581D01*
X73067703Y-87077343D01*
X73067707Y-87077342D01*
X73072872Y-87076001D01*
X73077738Y-87073809D01*
X73077741Y-87073808D01*
X73278202Y-86983507D01*
X73283075Y-86981312D01*
X73474319Y-86852559D01*
X73532012Y-86797523D01*
X73637278Y-86697103D01*
X73641135Y-86693424D01*
X73778754Y-86508458D01*
X73782331Y-86501424D01*
X73880822Y-86307704D01*
X73883240Y-86302949D01*
X73919321Y-86186752D01*
X73950024Y-86087871D01*
X73951607Y-86082773D01*
X73952308Y-86077484D01*
X73981198Y-85859511D01*
X73981198Y-85859506D01*
X73981898Y-85854226D01*
X73979847Y-85799580D01*
X73977076Y-85725774D01*
X80258102Y-85725774D01*
X80258302Y-85731103D01*
X80258302Y-85731105D01*
X80260612Y-85792628D01*
X80266751Y-85956158D01*
X80314093Y-86181791D01*
X80398776Y-86396221D01*
X80401543Y-86400780D01*
X80401544Y-86400783D01*
X80440531Y-86465031D01*
X80518377Y-86593317D01*
X80521874Y-86597347D01*
X80642112Y-86735909D01*
X80669477Y-86767445D01*
X80673608Y-86770832D01*
X80843627Y-86910240D01*
X80843633Y-86910244D01*
X80847755Y-86913624D01*
X80852391Y-86916263D01*
X80852394Y-86916265D01*
X80925707Y-86957997D01*
X81048114Y-87027675D01*
X81264825Y-87106337D01*
X81270074Y-87107286D01*
X81270077Y-87107287D01*
X81487608Y-87146623D01*
X81487615Y-87146624D01*
X81491692Y-87147361D01*
X81509414Y-87148197D01*
X81514356Y-87148430D01*
X81514363Y-87148430D01*
X81515844Y-87148500D01*
X81677890Y-87148500D01*
X81744809Y-87142822D01*
X81844409Y-87134371D01*
X81844413Y-87134370D01*
X81849720Y-87133920D01*
X81854875Y-87132582D01*
X81854881Y-87132581D01*
X82067703Y-87077343D01*
X82067707Y-87077342D01*
X82072872Y-87076001D01*
X82077738Y-87073809D01*
X82077741Y-87073808D01*
X82278202Y-86983507D01*
X82283075Y-86981312D01*
X82474319Y-86852559D01*
X82532012Y-86797523D01*
X82637278Y-86697103D01*
X82641135Y-86693424D01*
X82778754Y-86508458D01*
X82782331Y-86501424D01*
X82880822Y-86307704D01*
X82883240Y-86302949D01*
X82919321Y-86186752D01*
X82950024Y-86087871D01*
X82951607Y-86082773D01*
X82952308Y-86077484D01*
X82981198Y-85859511D01*
X82981198Y-85859506D01*
X82981898Y-85854226D01*
X82979847Y-85799580D01*
X82978543Y-85764858D01*
X96357299Y-85764858D01*
X96373456Y-86089410D01*
X96374287Y-86096939D01*
X96429318Y-86417198D01*
X96431051Y-86424585D01*
X96524156Y-86735909D01*
X96526759Y-86743022D01*
X96656595Y-87040913D01*
X96660037Y-87047669D01*
X96824720Y-87327803D01*
X96828943Y-87334088D01*
X96985792Y-87539608D01*
X96997316Y-87548069D01*
X97009382Y-87541408D01*
X98747978Y-85802812D01*
X98754356Y-85791132D01*
X99484408Y-85791132D01*
X99484539Y-85792965D01*
X99488790Y-85799580D01*
X101228825Y-87539615D01*
X101241948Y-87546781D01*
X101252250Y-87539391D01*
X101361429Y-87405285D01*
X101365842Y-87399144D01*
X101539248Y-87124312D01*
X101542895Y-87117677D01*
X101682025Y-86824011D01*
X101684850Y-86816984D01*
X101787696Y-86508715D01*
X101789650Y-86501424D01*
X101854716Y-86183033D01*
X101855784Y-86175529D01*
X101882253Y-85850100D01*
X101882458Y-85845625D01*
X101883018Y-85792221D01*
X101882908Y-85787789D01*
X101863257Y-85461835D01*
X101862349Y-85454333D01*
X101803967Y-85134663D01*
X101802154Y-85127284D01*
X101705797Y-84816966D01*
X101703116Y-84809869D01*
X101570172Y-84513363D01*
X101566655Y-84506636D01*
X101399054Y-84228252D01*
X101394757Y-84221999D01*
X101253617Y-84041022D01*
X101241823Y-84032551D01*
X101230113Y-84039097D01*
X99492022Y-85777188D01*
X99484408Y-85791132D01*
X98754356Y-85791132D01*
X98755592Y-85788868D01*
X98755461Y-85787035D01*
X98751210Y-85780420D01*
X97010864Y-84040074D01*
X96997929Y-84033011D01*
X96987367Y-84040671D01*
X96861785Y-84198268D01*
X96857428Y-84204467D01*
X96686913Y-84481094D01*
X96683333Y-84487770D01*
X96547287Y-84782878D01*
X96544537Y-84789929D01*
X96444927Y-85099251D01*
X96443044Y-85106584D01*
X96381316Y-85425632D01*
X96380329Y-85433132D01*
X96357378Y-85757277D01*
X96357299Y-85764858D01*
X82978543Y-85764858D01*
X82973449Y-85629173D01*
X82973249Y-85623842D01*
X82925907Y-85398209D01*
X82841224Y-85183779D01*
X82721623Y-84986683D01*
X82634755Y-84886576D01*
X82574023Y-84816588D01*
X82574021Y-84816586D01*
X82570523Y-84812555D01*
X82528970Y-84778484D01*
X82396373Y-84669760D01*
X82396367Y-84669756D01*
X82392245Y-84666376D01*
X82387609Y-84663737D01*
X82387606Y-84663735D01*
X82196529Y-84554968D01*
X82191886Y-84552325D01*
X81975175Y-84473663D01*
X81969926Y-84472714D01*
X81969923Y-84472713D01*
X81752392Y-84433377D01*
X81752385Y-84433376D01*
X81748308Y-84432639D01*
X81730586Y-84431803D01*
X81725644Y-84431570D01*
X81725637Y-84431570D01*
X81724156Y-84431500D01*
X81562110Y-84431500D01*
X81495191Y-84437178D01*
X81395591Y-84445629D01*
X81395587Y-84445630D01*
X81390280Y-84446080D01*
X81385125Y-84447418D01*
X81385119Y-84447419D01*
X81172297Y-84502657D01*
X81172293Y-84502658D01*
X81167128Y-84503999D01*
X81162262Y-84506191D01*
X81162259Y-84506192D01*
X81053980Y-84554968D01*
X80956925Y-84598688D01*
X80765681Y-84727441D01*
X80598865Y-84886576D01*
X80461246Y-85071542D01*
X80458830Y-85076293D01*
X80458828Y-85076297D01*
X80432905Y-85127284D01*
X80356760Y-85277051D01*
X80355178Y-85282145D01*
X80355177Y-85282148D01*
X80313001Y-85417978D01*
X80288393Y-85497227D01*
X80287692Y-85502516D01*
X80272304Y-85618623D01*
X80258102Y-85725774D01*
X73977076Y-85725774D01*
X73973449Y-85629173D01*
X73973249Y-85623842D01*
X73925907Y-85398209D01*
X73841224Y-85183779D01*
X73721623Y-84986683D01*
X73634755Y-84886576D01*
X73574023Y-84816588D01*
X73574021Y-84816586D01*
X73570523Y-84812555D01*
X73528970Y-84778484D01*
X73396373Y-84669760D01*
X73396367Y-84669756D01*
X73392245Y-84666376D01*
X73387609Y-84663737D01*
X73387606Y-84663735D01*
X73196529Y-84554968D01*
X73191886Y-84552325D01*
X72975175Y-84473663D01*
X72969926Y-84472714D01*
X72969923Y-84472713D01*
X72752392Y-84433377D01*
X72752385Y-84433376D01*
X72748308Y-84432639D01*
X72730586Y-84431803D01*
X72725644Y-84431570D01*
X72725637Y-84431570D01*
X72724156Y-84431500D01*
X72562110Y-84431500D01*
X72495191Y-84437178D01*
X72395591Y-84445629D01*
X72395587Y-84445630D01*
X72390280Y-84446080D01*
X72385125Y-84447418D01*
X72385119Y-84447419D01*
X72172297Y-84502657D01*
X72172293Y-84502658D01*
X72167128Y-84503999D01*
X72162262Y-84506191D01*
X72162259Y-84506192D01*
X72053980Y-84554968D01*
X71956925Y-84598688D01*
X71765681Y-84727441D01*
X71598865Y-84886576D01*
X71461246Y-85071542D01*
X71458830Y-85076293D01*
X71458828Y-85076297D01*
X71432905Y-85127284D01*
X71356760Y-85277051D01*
X71355178Y-85282145D01*
X71355177Y-85282148D01*
X71313001Y-85417978D01*
X71288393Y-85497227D01*
X71287692Y-85502516D01*
X71272304Y-85618623D01*
X71258102Y-85725774D01*
X51879169Y-85725774D01*
X51863257Y-85461835D01*
X51862349Y-85454333D01*
X51803967Y-85134663D01*
X51802154Y-85127284D01*
X51705797Y-84816966D01*
X51703116Y-84809869D01*
X51570172Y-84513363D01*
X51566655Y-84506636D01*
X51399054Y-84228252D01*
X51394757Y-84221999D01*
X51253617Y-84041022D01*
X51241823Y-84032551D01*
X51230113Y-84039097D01*
X49492022Y-85777188D01*
X49484408Y-85791132D01*
X48754356Y-85791132D01*
X48755592Y-85788868D01*
X48755461Y-85787035D01*
X48751210Y-85780420D01*
X47010864Y-84040074D01*
X46997929Y-84033011D01*
X46987367Y-84040671D01*
X46861785Y-84198268D01*
X46857428Y-84204467D01*
X46686913Y-84481094D01*
X46683333Y-84487770D01*
X46547287Y-84782878D01*
X46544537Y-84789929D01*
X46444927Y-85099251D01*
X46443044Y-85106584D01*
X46381316Y-85425632D01*
X46380329Y-85433132D01*
X46357378Y-85757277D01*
X46357299Y-85764858D01*
X45630128Y-85764858D01*
X45629773Y-85762376D01*
X45628500Y-85744514D01*
X45628500Y-83667773D01*
X47362267Y-83667773D01*
X47368871Y-83679661D01*
X49107188Y-85417978D01*
X49121132Y-85425592D01*
X49122965Y-85425461D01*
X49129580Y-85421210D01*
X50870162Y-83680628D01*
X50877174Y-83667787D01*
X50869379Y-83657098D01*
X50699886Y-83523481D01*
X50693663Y-83519156D01*
X50416140Y-83350088D01*
X50409465Y-83346553D01*
X50113637Y-83212049D01*
X50106567Y-83209335D01*
X49796740Y-83111350D01*
X49789389Y-83109503D01*
X49470024Y-83049446D01*
X49462515Y-83048498D01*
X49138251Y-83027245D01*
X49130686Y-83027205D01*
X48806207Y-83045062D01*
X48798693Y-83045931D01*
X48478713Y-83102641D01*
X48471357Y-83104406D01*
X48160503Y-83199147D01*
X48153409Y-83201786D01*
X47856207Y-83333178D01*
X47849470Y-83336655D01*
X47570196Y-83502805D01*
X47563945Y-83507053D01*
X47370733Y-83656115D01*
X47362267Y-83667773D01*
X45628500Y-83667773D01*
X45628500Y-82778640D01*
X68206463Y-82778640D01*
X68224163Y-82959160D01*
X68281418Y-83131273D01*
X68285065Y-83137295D01*
X68285066Y-83137297D01*
X68328694Y-83209335D01*
X68375380Y-83286424D01*
X68501382Y-83416902D01*
X68507278Y-83420760D01*
X68632656Y-83502805D01*
X68653159Y-83516222D01*
X68659763Y-83518678D01*
X68659765Y-83518679D01*
X68816558Y-83576990D01*
X68816560Y-83576990D01*
X68823168Y-83579448D01*
X68906995Y-83590633D01*
X68995980Y-83602507D01*
X68995984Y-83602507D01*
X69002961Y-83603438D01*
X69009972Y-83602800D01*
X69009976Y-83602800D01*
X69152459Y-83589832D01*
X69183600Y-83586998D01*
X69190302Y-83584820D01*
X69190304Y-83584820D01*
X69349409Y-83533124D01*
X69349412Y-83533123D01*
X69356108Y-83530947D01*
X69506540Y-83441271D01*
X69571058Y-83423500D01*
X89605406Y-83423500D01*
X89673527Y-83443502D01*
X89694501Y-83460405D01*
X89784750Y-83550654D01*
X89818776Y-83612966D01*
X89821054Y-83627453D01*
X89824163Y-83659160D01*
X89881418Y-83831273D01*
X89885065Y-83837295D01*
X89885066Y-83837297D01*
X89895978Y-83855314D01*
X89975380Y-83986424D01*
X89980269Y-83991487D01*
X89980270Y-83991488D01*
X90027766Y-84040671D01*
X90101382Y-84116902D01*
X90253159Y-84216222D01*
X90259763Y-84218678D01*
X90259765Y-84218679D01*
X90416558Y-84276990D01*
X90416560Y-84276990D01*
X90423168Y-84279448D01*
X90506995Y-84290633D01*
X90595980Y-84302507D01*
X90595984Y-84302507D01*
X90602961Y-84303438D01*
X90609972Y-84302800D01*
X90609976Y-84302800D01*
X90752459Y-84289832D01*
X90783600Y-84286998D01*
X90790302Y-84284820D01*
X90790304Y-84284820D01*
X90949409Y-84233124D01*
X90949412Y-84233123D01*
X90956108Y-84230947D01*
X91111912Y-84138069D01*
X91243266Y-84012982D01*
X91343643Y-83861902D01*
X91408055Y-83692338D01*
X91409837Y-83679661D01*
X91411508Y-83667773D01*
X97362267Y-83667773D01*
X97368871Y-83679661D01*
X99107188Y-85417978D01*
X99121132Y-85425592D01*
X99122965Y-85425461D01*
X99129580Y-85421210D01*
X100870162Y-83680628D01*
X100877174Y-83667787D01*
X100869379Y-83657098D01*
X100699886Y-83523481D01*
X100693663Y-83519156D01*
X100416140Y-83350088D01*
X100409465Y-83346553D01*
X100113637Y-83212049D01*
X100106567Y-83209335D01*
X99796740Y-83111350D01*
X99789389Y-83109503D01*
X99470024Y-83049446D01*
X99462515Y-83048498D01*
X99138251Y-83027245D01*
X99130686Y-83027205D01*
X98806207Y-83045062D01*
X98798693Y-83045931D01*
X98478713Y-83102641D01*
X98471357Y-83104406D01*
X98160503Y-83199147D01*
X98153409Y-83201786D01*
X97856207Y-83333178D01*
X97849470Y-83336655D01*
X97570196Y-83502805D01*
X97563945Y-83507053D01*
X97370733Y-83656115D01*
X97362267Y-83667773D01*
X91411508Y-83667773D01*
X91432748Y-83516639D01*
X91432748Y-83516636D01*
X91433299Y-83512717D01*
X91433616Y-83490000D01*
X91413397Y-83309745D01*
X91405276Y-83286424D01*
X91356064Y-83145106D01*
X91356062Y-83145103D01*
X91353745Y-83138448D01*
X91345086Y-83124590D01*
X91261359Y-82990598D01*
X91257626Y-82984624D01*
X91225379Y-82952151D01*
X91134778Y-82860915D01*
X91134774Y-82860912D01*
X91129815Y-82855918D01*
X90976666Y-82758727D01*
X90947463Y-82748328D01*
X90812425Y-82700243D01*
X90812420Y-82700242D01*
X90805790Y-82697881D01*
X90798802Y-82697048D01*
X90798799Y-82697047D01*
X90756008Y-82691945D01*
X90690734Y-82664018D01*
X90681831Y-82655926D01*
X90423652Y-82397747D01*
X90416112Y-82389461D01*
X90412000Y-82382982D01*
X90362348Y-82336356D01*
X90359507Y-82333602D01*
X90339770Y-82313865D01*
X90336573Y-82311385D01*
X90327551Y-82303680D01*
X90301100Y-82278841D01*
X90295321Y-82273414D01*
X90288375Y-82269595D01*
X90288372Y-82269593D01*
X90277566Y-82263652D01*
X90261047Y-82252801D01*
X90260583Y-82252441D01*
X90245041Y-82240386D01*
X90237772Y-82237241D01*
X90237768Y-82237238D01*
X90204463Y-82222826D01*
X90193813Y-82217609D01*
X90155060Y-82196305D01*
X90135437Y-82191267D01*
X90116734Y-82184863D01*
X90105420Y-82179967D01*
X90105419Y-82179967D01*
X90098145Y-82176819D01*
X90090322Y-82175580D01*
X90090312Y-82175577D01*
X90054476Y-82169901D01*
X90042856Y-82167495D01*
X90007711Y-82158472D01*
X90007710Y-82158472D01*
X90000030Y-82156500D01*
X89979776Y-82156500D01*
X89960065Y-82154949D01*
X89947886Y-82153020D01*
X89940057Y-82151780D01*
X89932165Y-82152526D01*
X89896039Y-82155941D01*
X89884181Y-82156500D01*
X69567338Y-82156500D01*
X69499824Y-82136885D01*
X69466583Y-82115790D01*
X69376666Y-82058727D01*
X69347463Y-82048328D01*
X69212425Y-82000243D01*
X69212420Y-82000242D01*
X69205790Y-81997881D01*
X69198802Y-81997048D01*
X69198799Y-81997047D01*
X69075698Y-81982368D01*
X69025680Y-81976404D01*
X69018677Y-81977140D01*
X69018676Y-81977140D01*
X68852288Y-81994628D01*
X68852286Y-81994629D01*
X68845288Y-81995364D01*
X68673579Y-82053818D01*
X68667575Y-82057512D01*
X68525095Y-82145166D01*
X68525092Y-82145168D01*
X68519088Y-82148862D01*
X68514053Y-82153793D01*
X68514050Y-82153795D01*
X68394525Y-82270843D01*
X68389493Y-82275771D01*
X68291235Y-82428238D01*
X68229197Y-82598685D01*
X68206463Y-82778640D01*
X45628500Y-82778640D01*
X45628500Y-80382628D01*
X88101248Y-80382628D01*
X88109897Y-80613012D01*
X88157239Y-80838645D01*
X88241922Y-81053075D01*
X88361523Y-81250171D01*
X88365020Y-81254201D01*
X88451584Y-81353957D01*
X88512623Y-81424299D01*
X88516754Y-81427686D01*
X88686773Y-81567094D01*
X88686779Y-81567098D01*
X88690901Y-81570478D01*
X88695537Y-81573117D01*
X88695540Y-81573119D01*
X88804568Y-81635181D01*
X88891260Y-81684529D01*
X89107971Y-81763191D01*
X89113220Y-81764140D01*
X89113223Y-81764141D01*
X89330754Y-81803477D01*
X89330761Y-81803478D01*
X89334838Y-81804215D01*
X89352560Y-81805051D01*
X89357502Y-81805284D01*
X89357509Y-81805284D01*
X89358990Y-81805354D01*
X89521036Y-81805354D01*
X89587955Y-81799676D01*
X89687555Y-81791225D01*
X89687559Y-81791224D01*
X89692866Y-81790774D01*
X89698021Y-81789436D01*
X89698027Y-81789435D01*
X89910849Y-81734197D01*
X89910853Y-81734196D01*
X89916018Y-81732855D01*
X89920884Y-81730663D01*
X89920887Y-81730662D01*
X90121348Y-81640361D01*
X90126221Y-81638166D01*
X90317465Y-81509413D01*
X90484281Y-81350278D01*
X90621900Y-81165312D01*
X90726386Y-80959803D01*
X90762467Y-80843606D01*
X90793170Y-80744725D01*
X90794753Y-80739627D01*
X90795454Y-80734338D01*
X90824344Y-80516365D01*
X90824344Y-80516360D01*
X90825044Y-80511080D01*
X90816395Y-80280696D01*
X90769053Y-80055063D01*
X90684370Y-79840633D01*
X90564769Y-79643537D01*
X90477901Y-79543430D01*
X90417169Y-79473442D01*
X90417167Y-79473440D01*
X90413669Y-79469409D01*
X90372116Y-79435338D01*
X90239519Y-79326614D01*
X90239513Y-79326610D01*
X90235391Y-79323230D01*
X90230755Y-79320591D01*
X90230752Y-79320589D01*
X90039675Y-79211822D01*
X90035032Y-79209179D01*
X89818321Y-79130517D01*
X89813072Y-79129568D01*
X89813069Y-79129567D01*
X89595538Y-79090231D01*
X89595531Y-79090230D01*
X89591454Y-79089493D01*
X89573732Y-79088657D01*
X89568790Y-79088424D01*
X89568783Y-79088424D01*
X89567302Y-79088354D01*
X89405256Y-79088354D01*
X89338337Y-79094032D01*
X89238737Y-79102483D01*
X89238733Y-79102484D01*
X89233426Y-79102934D01*
X89228271Y-79104272D01*
X89228265Y-79104273D01*
X89015443Y-79159511D01*
X89015439Y-79159512D01*
X89010274Y-79160853D01*
X89005408Y-79163045D01*
X89005405Y-79163046D01*
X88897126Y-79211822D01*
X88800071Y-79255542D01*
X88608827Y-79384295D01*
X88442011Y-79543430D01*
X88304392Y-79728396D01*
X88199906Y-79933905D01*
X88198324Y-79938999D01*
X88198323Y-79939002D01*
X88136261Y-80138874D01*
X88131539Y-80154081D01*
X88130838Y-80159370D01*
X88115450Y-80275477D01*
X88101248Y-80382628D01*
X45628500Y-80382628D01*
X45628500Y-67779340D01*
X69106628Y-67779340D01*
X69107493Y-67789226D01*
X69111002Y-67829340D01*
X69111331Y-67834166D01*
X69111452Y-67836638D01*
X69111452Y-67839721D01*
X69111753Y-67842789D01*
X69115642Y-67882458D01*
X69115764Y-67883771D01*
X69116788Y-67895471D01*
X69123865Y-67976365D01*
X69125352Y-67981484D01*
X69125872Y-67986785D01*
X69152743Y-68075786D01*
X69153078Y-68076919D01*
X69177139Y-68159734D01*
X69179043Y-68166288D01*
X69181496Y-68171020D01*
X69183036Y-68176121D01*
X69185930Y-68181564D01*
X69226683Y-68258212D01*
X69227295Y-68259378D01*
X69270060Y-68341878D01*
X69273383Y-68346041D01*
X69275886Y-68350748D01*
X69334707Y-68422870D01*
X69335398Y-68423726D01*
X69366690Y-68462925D01*
X69369194Y-68465429D01*
X69369836Y-68466147D01*
X69373537Y-68470480D01*
X69400887Y-68504014D01*
X69405634Y-68507941D01*
X69405636Y-68507943D01*
X69436214Y-68533239D01*
X69444994Y-68541229D01*
X76363145Y-75459379D01*
X76372247Y-75469522D01*
X76395968Y-75499025D01*
X76400696Y-75502992D01*
X76434421Y-75531291D01*
X76438069Y-75534472D01*
X76439881Y-75536115D01*
X76442075Y-75538309D01*
X76475349Y-75565642D01*
X76476147Y-75566304D01*
X76547474Y-75626154D01*
X76552144Y-75628722D01*
X76556261Y-75632103D01*
X76638120Y-75675995D01*
X76639280Y-75676624D01*
X76715389Y-75718466D01*
X76715394Y-75718468D01*
X76720787Y-75721433D01*
X76725865Y-75723044D01*
X76730563Y-75725563D01*
X76819498Y-75752753D01*
X76820702Y-75753128D01*
X76909306Y-75781235D01*
X76914597Y-75781828D01*
X76919698Y-75783388D01*
X76925830Y-75784011D01*
X76925836Y-75784012D01*
X76986338Y-75790157D01*
X77012263Y-75792790D01*
X77013450Y-75792916D01*
X77042838Y-75796213D01*
X77059730Y-75798108D01*
X77059735Y-75798108D01*
X77063227Y-75798500D01*
X77066752Y-75798500D01*
X77067737Y-75798555D01*
X77073432Y-75799003D01*
X77085342Y-75800213D01*
X77110334Y-75802752D01*
X77110339Y-75802752D01*
X77116462Y-75803374D01*
X77162108Y-75799059D01*
X77173967Y-75798500D01*
X82058157Y-75798500D01*
X82071764Y-75799237D01*
X82103262Y-75802659D01*
X82103267Y-75802659D01*
X82109388Y-75803324D01*
X82135638Y-75801027D01*
X82159388Y-75798950D01*
X82164214Y-75798621D01*
X82166686Y-75798500D01*
X82169769Y-75798500D01*
X82181738Y-75797326D01*
X82212506Y-75794310D01*
X82213819Y-75794188D01*
X82258084Y-75790315D01*
X82306413Y-75786087D01*
X82311532Y-75784600D01*
X82316833Y-75784080D01*
X82405834Y-75757209D01*
X82406967Y-75756874D01*
X82490414Y-75732630D01*
X82490418Y-75732628D01*
X82496336Y-75730909D01*
X82501068Y-75728456D01*
X82506169Y-75726916D01*
X82522062Y-75718466D01*
X82588260Y-75683269D01*
X82589426Y-75682657D01*
X82666453Y-75642729D01*
X82671926Y-75639892D01*
X82676089Y-75636569D01*
X82680796Y-75634066D01*
X82752918Y-75575245D01*
X82753774Y-75574554D01*
X82792973Y-75543262D01*
X82795477Y-75540758D01*
X82796195Y-75540116D01*
X82800528Y-75536415D01*
X82834062Y-75509065D01*
X82863288Y-75473737D01*
X82871277Y-75464958D01*
X84866127Y-73470107D01*
X84868309Y-73467925D01*
X84962103Y-73353739D01*
X85055562Y-73179437D01*
X85113387Y-72990302D01*
X85133374Y-72793538D01*
X85114761Y-72596638D01*
X85058259Y-72407104D01*
X84966018Y-72232154D01*
X84841553Y-72078453D01*
X84689604Y-71951854D01*
X84515959Y-71857178D01*
X84421596Y-71827607D01*
X84333114Y-71799878D01*
X84333111Y-71799877D01*
X84327232Y-71798035D01*
X84321109Y-71797370D01*
X84321105Y-71797369D01*
X84136736Y-71777341D01*
X84136732Y-71777341D01*
X84130611Y-71776676D01*
X83933587Y-71793913D01*
X83927670Y-71795632D01*
X83927665Y-71795633D01*
X83796936Y-71833614D01*
X83743664Y-71849091D01*
X83568074Y-71940108D01*
X83533963Y-71967338D01*
X83449777Y-72034542D01*
X83449770Y-72034549D01*
X83447027Y-72036738D01*
X83444532Y-72039233D01*
X81739171Y-73744595D01*
X81676859Y-73778620D01*
X81650076Y-73781500D01*
X77589924Y-73781500D01*
X77521803Y-73761498D01*
X77500829Y-73744595D01*
X72825154Y-69068920D01*
X99414956Y-69068920D01*
X99423605Y-69299304D01*
X99470947Y-69524937D01*
X99555630Y-69739367D01*
X99675231Y-69936463D01*
X99678728Y-69940493D01*
X99765292Y-70040249D01*
X99826331Y-70110591D01*
X99830462Y-70113978D01*
X100000481Y-70253386D01*
X100000487Y-70253390D01*
X100004609Y-70256770D01*
X100009245Y-70259409D01*
X100009248Y-70259411D01*
X100118276Y-70321473D01*
X100204968Y-70370821D01*
X100421679Y-70449483D01*
X100426928Y-70450432D01*
X100426931Y-70450433D01*
X100644462Y-70489769D01*
X100644469Y-70489770D01*
X100648546Y-70490507D01*
X100666268Y-70491343D01*
X100671210Y-70491576D01*
X100671217Y-70491576D01*
X100672698Y-70491646D01*
X100834744Y-70491646D01*
X100901663Y-70485968D01*
X101001263Y-70477517D01*
X101001267Y-70477516D01*
X101006574Y-70477066D01*
X101011729Y-70475728D01*
X101011735Y-70475727D01*
X101224557Y-70420489D01*
X101224561Y-70420488D01*
X101229726Y-70419147D01*
X101234592Y-70416955D01*
X101234595Y-70416954D01*
X101435056Y-70326653D01*
X101439929Y-70324458D01*
X101631173Y-70195705D01*
X101797989Y-70036570D01*
X101935608Y-69851604D01*
X102040094Y-69646095D01*
X102076175Y-69529898D01*
X102106878Y-69431017D01*
X102108461Y-69425919D01*
X102109162Y-69420630D01*
X102138052Y-69202657D01*
X102138052Y-69202652D01*
X102138752Y-69197372D01*
X102130103Y-68966988D01*
X102082761Y-68741355D01*
X101998078Y-68526925D01*
X101986560Y-68507943D01*
X101887968Y-68345470D01*
X101878477Y-68329829D01*
X101791609Y-68229722D01*
X101730877Y-68159734D01*
X101730875Y-68159732D01*
X101727377Y-68155701D01*
X101630619Y-68076364D01*
X101553227Y-68012906D01*
X101553221Y-68012902D01*
X101549099Y-68009522D01*
X101544463Y-68006883D01*
X101544460Y-68006881D01*
X101353383Y-67898114D01*
X101348740Y-67895471D01*
X101132029Y-67816809D01*
X101126780Y-67815860D01*
X101126777Y-67815859D01*
X100909246Y-67776523D01*
X100909239Y-67776522D01*
X100905162Y-67775785D01*
X100887440Y-67774949D01*
X100882498Y-67774716D01*
X100882491Y-67774716D01*
X100881010Y-67774646D01*
X100718964Y-67774646D01*
X100663644Y-67779340D01*
X100552445Y-67788775D01*
X100552441Y-67788776D01*
X100547134Y-67789226D01*
X100541979Y-67790564D01*
X100541973Y-67790565D01*
X100329151Y-67845803D01*
X100329147Y-67845804D01*
X100323982Y-67847145D01*
X100319116Y-67849337D01*
X100319113Y-67849338D01*
X100210834Y-67898114D01*
X100113779Y-67941834D01*
X99922535Y-68070587D01*
X99755719Y-68229722D01*
X99618100Y-68414688D01*
X99615684Y-68419439D01*
X99615682Y-68419443D01*
X99613726Y-68423291D01*
X99513614Y-68620197D01*
X99512032Y-68625291D01*
X99512031Y-68625294D01*
X99449969Y-68825166D01*
X99445247Y-68840373D01*
X99444546Y-68845662D01*
X99429158Y-68961769D01*
X99414956Y-69068920D01*
X72825154Y-69068920D01*
X71165357Y-67409123D01*
X71131331Y-67346811D01*
X71128452Y-67320028D01*
X71128452Y-62382628D01*
X88101248Y-62382628D01*
X88109897Y-62613012D01*
X88157239Y-62838645D01*
X88241922Y-63053075D01*
X88361523Y-63250171D01*
X88365020Y-63254201D01*
X88451584Y-63353957D01*
X88512623Y-63424299D01*
X88516754Y-63427686D01*
X88686773Y-63567094D01*
X88686779Y-63567098D01*
X88690901Y-63570478D01*
X88695537Y-63573117D01*
X88695540Y-63573119D01*
X88804568Y-63635181D01*
X88891260Y-63684529D01*
X89107971Y-63763191D01*
X89113220Y-63764140D01*
X89113223Y-63764141D01*
X89330754Y-63803477D01*
X89330761Y-63803478D01*
X89334838Y-63804215D01*
X89352560Y-63805051D01*
X89357502Y-63805284D01*
X89357509Y-63805284D01*
X89358990Y-63805354D01*
X89521036Y-63805354D01*
X89587955Y-63799676D01*
X89687555Y-63791225D01*
X89687559Y-63791224D01*
X89692866Y-63790774D01*
X89698021Y-63789436D01*
X89698027Y-63789435D01*
X89910849Y-63734197D01*
X89910853Y-63734196D01*
X89916018Y-63732855D01*
X89920884Y-63730663D01*
X89920887Y-63730662D01*
X90121348Y-63640361D01*
X90126221Y-63638166D01*
X90317465Y-63509413D01*
X90484281Y-63350278D01*
X90621900Y-63165312D01*
X90726386Y-62959803D01*
X90762467Y-62843606D01*
X90793170Y-62744725D01*
X90794753Y-62739627D01*
X90795454Y-62734338D01*
X90824344Y-62516365D01*
X90824344Y-62516360D01*
X90825044Y-62511080D01*
X90816395Y-62280696D01*
X90769053Y-62055063D01*
X90684370Y-61840633D01*
X90564769Y-61643537D01*
X90477901Y-61543430D01*
X90417169Y-61473442D01*
X90417167Y-61473440D01*
X90413669Y-61469409D01*
X90372116Y-61435338D01*
X90239519Y-61326614D01*
X90239513Y-61326610D01*
X90235391Y-61323230D01*
X90230755Y-61320591D01*
X90230752Y-61320589D01*
X90039675Y-61211822D01*
X90035032Y-61209179D01*
X89818321Y-61130517D01*
X89813072Y-61129568D01*
X89813069Y-61129567D01*
X89595538Y-61090231D01*
X89595531Y-61090230D01*
X89591454Y-61089493D01*
X89573732Y-61088657D01*
X89568790Y-61088424D01*
X89568783Y-61088424D01*
X89567302Y-61088354D01*
X89405256Y-61088354D01*
X89338337Y-61094032D01*
X89238737Y-61102483D01*
X89238733Y-61102484D01*
X89233426Y-61102934D01*
X89228271Y-61104272D01*
X89228265Y-61104273D01*
X89015443Y-61159511D01*
X89015439Y-61159512D01*
X89010274Y-61160853D01*
X89005408Y-61163045D01*
X89005405Y-61163046D01*
X88897126Y-61211822D01*
X88800071Y-61255542D01*
X88608827Y-61384295D01*
X88442011Y-61543430D01*
X88304392Y-61728396D01*
X88199906Y-61933905D01*
X88198324Y-61938999D01*
X88198323Y-61939002D01*
X88136261Y-62138874D01*
X88131539Y-62154081D01*
X88130838Y-62159370D01*
X88115450Y-62275477D01*
X88101248Y-62382628D01*
X71128452Y-62382628D01*
X71128452Y-59740231D01*
X71127766Y-59733227D01*
X71114633Y-59599301D01*
X71114032Y-59593167D01*
X71056868Y-59403831D01*
X70964018Y-59229204D01*
X70893661Y-59142938D01*
X70842912Y-59080713D01*
X70842909Y-59080710D01*
X70839017Y-59075938D01*
X70832676Y-59070692D01*
X70691377Y-58953799D01*
X70691373Y-58953797D01*
X70686627Y-58949870D01*
X70512653Y-58855802D01*
X70323720Y-58797318D01*
X70317595Y-58796674D01*
X70317594Y-58796674D01*
X70133156Y-58777289D01*
X70133154Y-58777289D01*
X70127027Y-58776645D01*
X70044528Y-58784153D01*
X69936203Y-58794011D01*
X69936200Y-58794012D01*
X69930064Y-58794570D01*
X69924158Y-58796308D01*
X69924154Y-58796309D01*
X69819028Y-58827249D01*
X69740333Y-58850410D01*
X69734875Y-58853263D01*
X69734871Y-58853265D01*
X69644099Y-58900720D01*
X69565062Y-58942040D01*
X69410927Y-59065968D01*
X69283798Y-59217474D01*
X69280831Y-59222872D01*
X69280827Y-59222877D01*
X69277349Y-59229204D01*
X69188519Y-59390787D01*
X69186658Y-59396654D01*
X69186657Y-59396656D01*
X69130579Y-59573436D01*
X69128717Y-59579306D01*
X69111452Y-59733227D01*
X69111452Y-67728109D01*
X69110715Y-67741716D01*
X69106628Y-67779340D01*
X45628500Y-67779340D01*
X45628500Y-51068920D01*
X99414956Y-51068920D01*
X99423605Y-51299304D01*
X99470947Y-51524937D01*
X99555630Y-51739367D01*
X99675231Y-51936463D01*
X99678728Y-51940493D01*
X99765292Y-52040249D01*
X99826331Y-52110591D01*
X99830462Y-52113978D01*
X100000481Y-52253386D01*
X100000487Y-52253390D01*
X100004609Y-52256770D01*
X100009245Y-52259409D01*
X100009248Y-52259411D01*
X100118276Y-52321473D01*
X100204968Y-52370821D01*
X100421679Y-52449483D01*
X100426928Y-52450432D01*
X100426931Y-52450433D01*
X100644462Y-52489769D01*
X100644469Y-52489770D01*
X100648546Y-52490507D01*
X100666268Y-52491343D01*
X100671210Y-52491576D01*
X100671217Y-52491576D01*
X100672698Y-52491646D01*
X100834744Y-52491646D01*
X100901663Y-52485968D01*
X101001263Y-52477517D01*
X101001267Y-52477516D01*
X101006574Y-52477066D01*
X101011729Y-52475728D01*
X101011735Y-52475727D01*
X101224557Y-52420489D01*
X101224561Y-52420488D01*
X101229726Y-52419147D01*
X101234592Y-52416955D01*
X101234595Y-52416954D01*
X101435056Y-52326653D01*
X101439929Y-52324458D01*
X101631173Y-52195705D01*
X101797989Y-52036570D01*
X101935608Y-51851604D01*
X102040094Y-51646095D01*
X102076175Y-51529898D01*
X102106878Y-51431017D01*
X102108461Y-51425919D01*
X102109162Y-51420630D01*
X102138052Y-51202657D01*
X102138052Y-51202652D01*
X102138752Y-51197372D01*
X102130103Y-50966988D01*
X102082761Y-50741355D01*
X101998078Y-50526925D01*
X101878477Y-50329829D01*
X101791609Y-50229722D01*
X101730877Y-50159734D01*
X101730875Y-50159732D01*
X101727377Y-50155701D01*
X101685824Y-50121630D01*
X101553227Y-50012906D01*
X101553221Y-50012902D01*
X101549099Y-50009522D01*
X101544463Y-50006883D01*
X101544460Y-50006881D01*
X101353383Y-49898114D01*
X101348740Y-49895471D01*
X101132029Y-49816809D01*
X101126780Y-49815860D01*
X101126777Y-49815859D01*
X100909246Y-49776523D01*
X100909239Y-49776522D01*
X100905162Y-49775785D01*
X100887440Y-49774949D01*
X100882498Y-49774716D01*
X100882491Y-49774716D01*
X100881010Y-49774646D01*
X100718964Y-49774646D01*
X100652045Y-49780324D01*
X100552445Y-49788775D01*
X100552441Y-49788776D01*
X100547134Y-49789226D01*
X100541979Y-49790564D01*
X100541973Y-49790565D01*
X100329151Y-49845803D01*
X100329147Y-49845804D01*
X100323982Y-49847145D01*
X100319116Y-49849337D01*
X100319113Y-49849338D01*
X100210834Y-49898114D01*
X100113779Y-49941834D01*
X99922535Y-50070587D01*
X99755719Y-50229722D01*
X99618100Y-50414688D01*
X99513614Y-50620197D01*
X99512032Y-50625291D01*
X99512031Y-50625294D01*
X99449969Y-50825166D01*
X99445247Y-50840373D01*
X99444546Y-50845662D01*
X99429158Y-50961769D01*
X99414956Y-51068920D01*
X45628500Y-51068920D01*
X45628500Y-44382628D01*
X88101248Y-44382628D01*
X88109897Y-44613012D01*
X88157239Y-44838645D01*
X88241922Y-45053075D01*
X88361523Y-45250171D01*
X88365020Y-45254201D01*
X88451584Y-45353957D01*
X88512623Y-45424299D01*
X88516754Y-45427686D01*
X88686773Y-45567094D01*
X88686779Y-45567098D01*
X88690901Y-45570478D01*
X88695537Y-45573117D01*
X88695540Y-45573119D01*
X88804568Y-45635181D01*
X88891260Y-45684529D01*
X89107971Y-45763191D01*
X89113220Y-45764140D01*
X89113223Y-45764141D01*
X89330754Y-45803477D01*
X89330761Y-45803478D01*
X89334838Y-45804215D01*
X89352560Y-45805051D01*
X89357502Y-45805284D01*
X89357509Y-45805284D01*
X89358990Y-45805354D01*
X89521036Y-45805354D01*
X89587955Y-45799676D01*
X89687555Y-45791225D01*
X89687559Y-45791224D01*
X89692866Y-45790774D01*
X89698021Y-45789436D01*
X89698027Y-45789435D01*
X89910849Y-45734197D01*
X89910853Y-45734196D01*
X89916018Y-45732855D01*
X89920884Y-45730663D01*
X89920887Y-45730662D01*
X90121348Y-45640361D01*
X90126221Y-45638166D01*
X90317465Y-45509413D01*
X90484281Y-45350278D01*
X90621900Y-45165312D01*
X90726386Y-44959803D01*
X90762467Y-44843606D01*
X90793170Y-44744725D01*
X90794753Y-44739627D01*
X90795454Y-44734338D01*
X90824344Y-44516365D01*
X90824344Y-44516360D01*
X90825044Y-44511080D01*
X90816395Y-44280696D01*
X90769053Y-44055063D01*
X90684370Y-43840633D01*
X90564769Y-43643537D01*
X90477901Y-43543430D01*
X90417169Y-43473442D01*
X90417167Y-43473440D01*
X90413669Y-43469409D01*
X90372116Y-43435338D01*
X90239519Y-43326614D01*
X90239513Y-43326610D01*
X90235391Y-43323230D01*
X90230755Y-43320591D01*
X90230752Y-43320589D01*
X90039675Y-43211822D01*
X90035032Y-43209179D01*
X89818321Y-43130517D01*
X89813072Y-43129568D01*
X89813069Y-43129567D01*
X89595538Y-43090231D01*
X89595531Y-43090230D01*
X89591454Y-43089493D01*
X89573732Y-43088657D01*
X89568790Y-43088424D01*
X89568783Y-43088424D01*
X89567302Y-43088354D01*
X89405256Y-43088354D01*
X89338337Y-43094032D01*
X89238737Y-43102483D01*
X89238733Y-43102484D01*
X89233426Y-43102934D01*
X89228271Y-43104272D01*
X89228265Y-43104273D01*
X89015443Y-43159511D01*
X89015439Y-43159512D01*
X89010274Y-43160853D01*
X89005408Y-43163045D01*
X89005405Y-43163046D01*
X88897126Y-43211822D01*
X88800071Y-43255542D01*
X88608827Y-43384295D01*
X88442011Y-43543430D01*
X88304392Y-43728396D01*
X88199906Y-43933905D01*
X88198324Y-43938999D01*
X88198323Y-43939002D01*
X88136261Y-44138874D01*
X88131539Y-44154081D01*
X88130838Y-44159370D01*
X88115450Y-44275477D01*
X88101248Y-44382628D01*
X45628500Y-44382628D01*
X45628500Y-33068920D01*
X99414956Y-33068920D01*
X99423605Y-33299304D01*
X99470947Y-33524937D01*
X99555630Y-33739367D01*
X99675231Y-33936463D01*
X99678728Y-33940493D01*
X99765292Y-34040249D01*
X99826331Y-34110591D01*
X99830462Y-34113978D01*
X100000481Y-34253386D01*
X100000487Y-34253390D01*
X100004609Y-34256770D01*
X100009245Y-34259409D01*
X100009248Y-34259411D01*
X100118276Y-34321473D01*
X100204968Y-34370821D01*
X100421679Y-34449483D01*
X100426928Y-34450432D01*
X100426931Y-34450433D01*
X100644462Y-34489769D01*
X100644469Y-34489770D01*
X100648546Y-34490507D01*
X100666268Y-34491343D01*
X100671210Y-34491576D01*
X100671217Y-34491576D01*
X100672698Y-34491646D01*
X100834744Y-34491646D01*
X100901663Y-34485968D01*
X101001263Y-34477517D01*
X101001267Y-34477516D01*
X101006574Y-34477066D01*
X101011729Y-34475728D01*
X101011735Y-34475727D01*
X101224557Y-34420489D01*
X101224561Y-34420488D01*
X101229726Y-34419147D01*
X101234592Y-34416955D01*
X101234595Y-34416954D01*
X101435056Y-34326653D01*
X101439929Y-34324458D01*
X101631173Y-34195705D01*
X101797989Y-34036570D01*
X101935608Y-33851604D01*
X102040094Y-33646095D01*
X102076175Y-33529898D01*
X102106878Y-33431017D01*
X102108461Y-33425919D01*
X102109162Y-33420630D01*
X102138052Y-33202657D01*
X102138052Y-33202652D01*
X102138752Y-33197372D01*
X102130103Y-32966988D01*
X102082761Y-32741355D01*
X101998078Y-32526925D01*
X101878477Y-32329829D01*
X101791609Y-32229722D01*
X101730877Y-32159734D01*
X101730875Y-32159732D01*
X101727377Y-32155701D01*
X101685824Y-32121630D01*
X101553227Y-32012906D01*
X101553221Y-32012902D01*
X101549099Y-32009522D01*
X101544463Y-32006883D01*
X101544460Y-32006881D01*
X101353383Y-31898114D01*
X101348740Y-31895471D01*
X101132029Y-31816809D01*
X101126780Y-31815860D01*
X101126777Y-31815859D01*
X100909246Y-31776523D01*
X100909239Y-31776522D01*
X100905162Y-31775785D01*
X100887440Y-31774949D01*
X100882498Y-31774716D01*
X100882491Y-31774716D01*
X100881010Y-31774646D01*
X100718964Y-31774646D01*
X100652045Y-31780324D01*
X100552445Y-31788775D01*
X100552441Y-31788776D01*
X100547134Y-31789226D01*
X100541979Y-31790564D01*
X100541973Y-31790565D01*
X100329151Y-31845803D01*
X100329147Y-31845804D01*
X100323982Y-31847145D01*
X100319116Y-31849337D01*
X100319113Y-31849338D01*
X100210834Y-31898114D01*
X100113779Y-31941834D01*
X99922535Y-32070587D01*
X99755719Y-32229722D01*
X99618100Y-32414688D01*
X99513614Y-32620197D01*
X99512032Y-32625291D01*
X99512031Y-32625294D01*
X99449969Y-32825166D01*
X99445247Y-32840373D01*
X99444546Y-32845662D01*
X99429158Y-32961769D01*
X99414956Y-33068920D01*
X45628500Y-33068920D01*
X45628500Y-30911982D01*
X47363142Y-30911982D01*
X47370668Y-30922415D01*
X47516463Y-31039848D01*
X47522648Y-31044244D01*
X47798363Y-31216195D01*
X47805034Y-31219817D01*
X48099414Y-31357402D01*
X48106468Y-31360195D01*
X48415257Y-31461420D01*
X48422570Y-31463339D01*
X48741298Y-31526738D01*
X48748789Y-31527764D01*
X49072823Y-31552413D01*
X49080386Y-31552531D01*
X49405021Y-31538074D01*
X49412562Y-31537282D01*
X49733115Y-31483926D01*
X49740479Y-31482240D01*
X50052315Y-31390757D01*
X50059424Y-31388198D01*
X50358003Y-31259919D01*
X50364770Y-31256515D01*
X50645764Y-31093301D01*
X50652071Y-31089111D01*
X50870005Y-30924588D01*
X50878461Y-30913197D01*
X50877794Y-30911982D01*
X97363142Y-30911982D01*
X97370668Y-30922415D01*
X97516463Y-31039848D01*
X97522648Y-31044244D01*
X97798363Y-31216195D01*
X97805034Y-31219817D01*
X98099414Y-31357402D01*
X98106468Y-31360195D01*
X98415257Y-31461420D01*
X98422570Y-31463339D01*
X98741298Y-31526738D01*
X98748789Y-31527764D01*
X99072823Y-31552413D01*
X99080386Y-31552531D01*
X99405021Y-31538074D01*
X99412562Y-31537282D01*
X99733115Y-31483926D01*
X99740479Y-31482240D01*
X100052315Y-31390757D01*
X100059424Y-31388198D01*
X100358003Y-31259919D01*
X100364770Y-31256515D01*
X100645764Y-31093301D01*
X100652071Y-31089111D01*
X100870005Y-30924588D01*
X100878461Y-30913197D01*
X100871743Y-30900953D01*
X99132812Y-29162022D01*
X99118868Y-29154408D01*
X99117035Y-29154539D01*
X99110420Y-29158790D01*
X97370257Y-30898953D01*
X97363142Y-30911982D01*
X50877794Y-30911982D01*
X50871743Y-30900953D01*
X49132812Y-29162022D01*
X49118868Y-29154408D01*
X49117035Y-29154539D01*
X49110420Y-29158790D01*
X47370257Y-30898953D01*
X47363142Y-30911982D01*
X45628500Y-30911982D01*
X45628500Y-28843250D01*
X45630246Y-28822345D01*
X45632770Y-28807344D01*
X45632770Y-28807341D01*
X45633576Y-28802552D01*
X45633729Y-28790000D01*
X45633040Y-28785185D01*
X45633039Y-28785177D01*
X45631550Y-28774781D01*
X45631087Y-28764858D01*
X46357299Y-28764858D01*
X46373456Y-29089410D01*
X46374287Y-29096939D01*
X46429318Y-29417198D01*
X46431051Y-29424585D01*
X46524156Y-29735909D01*
X46526759Y-29743022D01*
X46656595Y-30040913D01*
X46660037Y-30047669D01*
X46824720Y-30327803D01*
X46828943Y-30334088D01*
X46985792Y-30539608D01*
X46997316Y-30548069D01*
X47009382Y-30541408D01*
X48747978Y-28802812D01*
X48754356Y-28791132D01*
X49484408Y-28791132D01*
X49484539Y-28792965D01*
X49488790Y-28799580D01*
X51228825Y-30539615D01*
X51241948Y-30546781D01*
X51252250Y-30539391D01*
X51361429Y-30405285D01*
X51365842Y-30399144D01*
X51539248Y-30124312D01*
X51542895Y-30117677D01*
X51682025Y-29824011D01*
X51684850Y-29816984D01*
X51787696Y-29508715D01*
X51789650Y-29501424D01*
X51854716Y-29183033D01*
X51855784Y-29175529D01*
X51882253Y-28850100D01*
X51882458Y-28845625D01*
X51883018Y-28792221D01*
X51882908Y-28787789D01*
X51881526Y-28764858D01*
X96357299Y-28764858D01*
X96373456Y-29089410D01*
X96374287Y-29096939D01*
X96429318Y-29417198D01*
X96431051Y-29424585D01*
X96524156Y-29735909D01*
X96526759Y-29743022D01*
X96656595Y-30040913D01*
X96660037Y-30047669D01*
X96824720Y-30327803D01*
X96828943Y-30334088D01*
X96985792Y-30539608D01*
X96997316Y-30548069D01*
X97009382Y-30541408D01*
X98747978Y-28802812D01*
X98754356Y-28791132D01*
X99484408Y-28791132D01*
X99484539Y-28792965D01*
X99488790Y-28799580D01*
X101228825Y-30539615D01*
X101241948Y-30546781D01*
X101252250Y-30539391D01*
X101361429Y-30405285D01*
X101365842Y-30399144D01*
X101539248Y-30124312D01*
X101542895Y-30117677D01*
X101682025Y-29824011D01*
X101684850Y-29816984D01*
X101787696Y-29508715D01*
X101789650Y-29501424D01*
X101854716Y-29183033D01*
X101855784Y-29175529D01*
X101882253Y-28850100D01*
X101882458Y-28845625D01*
X101883018Y-28792221D01*
X101882908Y-28787789D01*
X101863257Y-28461835D01*
X101862349Y-28454333D01*
X101803967Y-28134663D01*
X101802154Y-28127284D01*
X101705797Y-27816966D01*
X101703116Y-27809869D01*
X101570172Y-27513363D01*
X101566655Y-27506636D01*
X101399054Y-27228252D01*
X101394757Y-27221999D01*
X101253617Y-27041022D01*
X101241823Y-27032551D01*
X101230113Y-27039097D01*
X99492022Y-28777188D01*
X99484408Y-28791132D01*
X98754356Y-28791132D01*
X98755592Y-28788868D01*
X98755461Y-28787035D01*
X98751210Y-28780420D01*
X97010864Y-27040074D01*
X96997929Y-27033011D01*
X96987367Y-27040671D01*
X96861785Y-27198268D01*
X96857428Y-27204467D01*
X96686913Y-27481094D01*
X96683333Y-27487770D01*
X96547287Y-27782878D01*
X96544537Y-27789929D01*
X96444927Y-28099251D01*
X96443044Y-28106584D01*
X96381316Y-28425632D01*
X96380329Y-28433132D01*
X96357378Y-28757277D01*
X96357299Y-28764858D01*
X51881526Y-28764858D01*
X51863257Y-28461835D01*
X51862349Y-28454333D01*
X51803967Y-28134663D01*
X51802154Y-28127284D01*
X51705797Y-27816966D01*
X51703116Y-27809869D01*
X51570172Y-27513363D01*
X51566655Y-27506636D01*
X51399054Y-27228252D01*
X51394757Y-27221999D01*
X51253617Y-27041022D01*
X51241823Y-27032551D01*
X51230113Y-27039097D01*
X49492022Y-28777188D01*
X49484408Y-28791132D01*
X48754356Y-28791132D01*
X48755592Y-28788868D01*
X48755461Y-28787035D01*
X48751210Y-28780420D01*
X47010864Y-27040074D01*
X46997929Y-27033011D01*
X46987367Y-27040671D01*
X46861785Y-27198268D01*
X46857428Y-27204467D01*
X46686913Y-27481094D01*
X46683333Y-27487770D01*
X46547287Y-27782878D01*
X46544537Y-27789929D01*
X46444927Y-28099251D01*
X46443044Y-28106584D01*
X46381316Y-28425632D01*
X46380329Y-28433132D01*
X46357378Y-28757277D01*
X46357299Y-28764858D01*
X45631087Y-28764858D01*
X45630429Y-28750735D01*
X45644991Y-28454333D01*
X45645010Y-28453949D01*
X45646221Y-28441650D01*
X45648623Y-28425461D01*
X45694680Y-28114966D01*
X45697091Y-28102841D01*
X45777339Y-27782477D01*
X45780928Y-27770645D01*
X45892190Y-27459689D01*
X45896922Y-27448265D01*
X46038126Y-27149712D01*
X46043955Y-27138807D01*
X46102566Y-27041022D01*
X46128412Y-26997899D01*
X46213744Y-26855533D01*
X46220614Y-26845252D01*
X46352230Y-26667787D01*
X46352240Y-26667773D01*
X47362267Y-26667773D01*
X47368871Y-26679661D01*
X49107188Y-28417978D01*
X49121132Y-28425592D01*
X49122965Y-28425461D01*
X49129580Y-28421210D01*
X50870162Y-26680628D01*
X50877174Y-26667787D01*
X50877164Y-26667773D01*
X97362267Y-26667773D01*
X97368871Y-26679661D01*
X99107188Y-28417978D01*
X99121132Y-28425592D01*
X99122965Y-28425461D01*
X99129580Y-28421210D01*
X100870162Y-26680628D01*
X100877174Y-26667787D01*
X100869379Y-26657098D01*
X100699886Y-26523481D01*
X100693663Y-26519156D01*
X100416140Y-26350088D01*
X100409465Y-26346553D01*
X100113637Y-26212049D01*
X100106567Y-26209335D01*
X99796740Y-26111350D01*
X99789389Y-26109503D01*
X99470024Y-26049446D01*
X99462515Y-26048498D01*
X99138251Y-26027245D01*
X99130686Y-26027205D01*
X98806207Y-26045062D01*
X98798693Y-26045931D01*
X98478713Y-26102641D01*
X98471357Y-26104406D01*
X98160503Y-26199147D01*
X98153409Y-26201786D01*
X97856207Y-26333178D01*
X97849470Y-26336655D01*
X97570196Y-26502805D01*
X97563945Y-26507053D01*
X97370733Y-26656115D01*
X97362267Y-26667773D01*
X50877164Y-26667773D01*
X50869379Y-26657098D01*
X50699886Y-26523481D01*
X50693663Y-26519156D01*
X50416140Y-26350088D01*
X50409465Y-26346553D01*
X50113637Y-26212049D01*
X50106567Y-26209335D01*
X49796740Y-26111350D01*
X49789389Y-26109503D01*
X49470024Y-26049446D01*
X49462515Y-26048498D01*
X49138251Y-26027245D01*
X49130686Y-26027205D01*
X48806207Y-26045062D01*
X48798693Y-26045931D01*
X48478713Y-26102641D01*
X48471357Y-26104406D01*
X48160503Y-26199147D01*
X48153409Y-26201786D01*
X47856207Y-26333178D01*
X47849470Y-26336655D01*
X47570196Y-26502805D01*
X47563945Y-26507053D01*
X47370733Y-26656115D01*
X47362267Y-26667773D01*
X46352240Y-26667773D01*
X46417350Y-26579983D01*
X46425177Y-26570444D01*
X46646985Y-26325718D01*
X46655718Y-26316985D01*
X46900444Y-26095177D01*
X46909983Y-26087350D01*
X47175252Y-25890614D01*
X47185533Y-25883744D01*
X47327899Y-25798412D01*
X47468812Y-25713953D01*
X47479708Y-25708128D01*
X47710500Y-25598972D01*
X47778265Y-25566922D01*
X47789689Y-25562190D01*
X48100645Y-25450928D01*
X48112477Y-25447339D01*
X48338804Y-25390646D01*
X48432844Y-25367090D01*
X48444966Y-25364680D01*
X48771655Y-25316221D01*
X48783949Y-25315010D01*
X49077039Y-25300610D01*
X49102598Y-25301958D01*
X49113724Y-25303691D01*
X49145286Y-25299564D01*
X49161621Y-25298500D01*
X99070633Y-25298500D01*
X99090018Y-25300000D01*
G37*
%TD.AperFunction*%
%TD*%
M02*
