%TF.GenerationSoftware,KiCad,Pcbnew,6.0.10-86aedd382b~118~ubuntu22.04.1*%
%TF.CreationDate,2023-01-01T10:29:27-05:00*%
%TF.ProjectId,project-nrf-princess-dress,70726f6a-6563-4742-9d6e-72662d707269,rev?*%
%TF.SameCoordinates,Original*%
%TF.FileFunction,Paste,Top*%
%TF.FilePolarity,Positive*%
%FSLAX46Y46*%
G04 Gerber Fmt 4.6, Leading zero omitted, Abs format (unit mm)*
G04 Created by KiCad (PCBNEW 6.0.10-86aedd382b~118~ubuntu22.04.1) date 2023-01-01 10:29:27*
%MOMM*%
%LPD*%
G01*
G04 APERTURE LIST*
G04 Aperture macros list*
%AMRoundRect*
0 Rectangle with rounded corners*
0 $1 Rounding radius*
0 $2 $3 $4 $5 $6 $7 $8 $9 X,Y pos of 4 corners*
0 Add a 4 corners polygon primitive as box body*
4,1,4,$2,$3,$4,$5,$6,$7,$8,$9,$2,$3,0*
0 Add four circle primitives for the rounded corners*
1,1,$1+$1,$2,$3*
1,1,$1+$1,$4,$5*
1,1,$1+$1,$6,$7*
1,1,$1+$1,$8,$9*
0 Add four rect primitives between the rounded corners*
20,1,$1+$1,$2,$3,$4,$5,0*
20,1,$1+$1,$4,$5,$6,$7,0*
20,1,$1+$1,$6,$7,$8,$9,0*
20,1,$1+$1,$8,$9,$2,$3,0*%
%AMRotRect*
0 Rectangle, with rotation*
0 The origin of the aperture is its center*
0 $1 length*
0 $2 width*
0 $3 Rotation angle, in degrees counterclockwise*
0 Add horizontal line*
21,1,$1,$2,0,0,$3*%
G04 Aperture macros list end*
%ADD10C,0.010000*%
%ADD11RoundRect,0.750000X0.750000X1.750000X-0.750000X1.750000X-0.750000X-1.750000X0.750000X-1.750000X0*%
%ADD12RoundRect,0.750000X-0.750000X-1.750000X0.750000X-1.750000X0.750000X1.750000X-0.750000X1.750000X0*%
%ADD13RotRect,1.400000X5.100000X45.000000*%
%ADD14RoundRect,0.008100X-0.421900X-0.126900X0.421900X-0.126900X0.421900X0.126900X-0.421900X0.126900X0*%
%ADD15RoundRect,0.008100X0.126900X-0.421900X0.126900X0.421900X-0.126900X0.421900X-0.126900X-0.421900X0*%
%ADD16R,1.200000X1.600000*%
%ADD17RoundRect,0.200000X0.275000X-0.200000X0.275000X0.200000X-0.275000X0.200000X-0.275000X-0.200000X0*%
%ADD18RoundRect,0.276000X-0.634000X0.324000X-0.634000X-0.324000X0.634000X-0.324000X0.634000X0.324000X0*%
%ADD19R,0.900000X0.800000*%
%ADD20R,0.600000X1.550000*%
%ADD21R,1.200000X1.800000*%
%ADD22R,1.900000X1.000000*%
%ADD23R,1.400000X5.100000*%
%ADD24RoundRect,0.250000X0.325000X1.100000X-0.325000X1.100000X-0.325000X-1.100000X0.325000X-1.100000X0*%
%ADD25RoundRect,0.225000X-0.225000X-0.250000X0.225000X-0.250000X0.225000X0.250000X-0.225000X0.250000X0*%
%ADD26RoundRect,0.225000X0.225000X0.250000X-0.225000X0.250000X-0.225000X-0.250000X0.225000X-0.250000X0*%
G04 APERTURE END LIST*
%TO.C,U3*%
G36*
X83440000Y-68260000D02*
G01*
X82800000Y-68260000D01*
X82800000Y-67320000D01*
X83440000Y-67320000D01*
X83440000Y-68260000D01*
G37*
D10*
X83440000Y-68260000D02*
X82800000Y-68260000D01*
X82800000Y-67320000D01*
X83440000Y-67320000D01*
X83440000Y-68260000D01*
%TO.C,U2*%
G36*
X83440000Y-50260000D02*
G01*
X82800000Y-50260000D01*
X82800000Y-49320000D01*
X83440000Y-49320000D01*
X83440000Y-50260000D01*
G37*
X83440000Y-50260000D02*
X82800000Y-50260000D01*
X82800000Y-49320000D01*
X83440000Y-49320000D01*
X83440000Y-50260000D01*
%TO.C,U1*%
G36*
X83440000Y-32260000D02*
G01*
X82800000Y-32260000D01*
X82800000Y-31320000D01*
X83440000Y-31320000D01*
X83440000Y-32260000D01*
G37*
X83440000Y-32260000D02*
X82800000Y-32260000D01*
X82800000Y-31320000D01*
X83440000Y-31320000D01*
X83440000Y-32260000D01*
%TD*%
D11*
%TO.C,J6*%
X60120000Y-27790000D03*
%TD*%
D12*
%TO.C,J9*%
X55620000Y-27790000D03*
%TD*%
D13*
%TO.C,J7*%
X87907511Y-75002132D03*
X95332132Y-67577511D03*
X92857258Y-70052385D03*
X90382385Y-72527258D03*
%TD*%
%TO.C,J4*%
X87907511Y-57002132D03*
X95332132Y-49577511D03*
X92857258Y-52052385D03*
X90382385Y-54527258D03*
%TD*%
%TO.C,J2*%
X87907511Y-39002132D03*
X95332132Y-31577511D03*
X92857258Y-34052385D03*
X90382385Y-36527258D03*
%TD*%
D14*
%TO.C,U3*%
X84305000Y-66790000D03*
X84305000Y-67290000D03*
X84305000Y-67790000D03*
X84305000Y-68290000D03*
X84305000Y-68790000D03*
X81935000Y-68790000D03*
X81935000Y-68290000D03*
X81935000Y-67790000D03*
X81935000Y-67290000D03*
X81935000Y-66790000D03*
D15*
X82870000Y-66355000D03*
X83370000Y-66355000D03*
X83370000Y-69225000D03*
X82870000Y-69225000D03*
%TD*%
D14*
%TO.C,U2*%
X84305000Y-48790000D03*
X84305000Y-49290000D03*
X84305000Y-49790000D03*
X84305000Y-50290000D03*
X84305000Y-50790000D03*
X81935000Y-50790000D03*
X81935000Y-50290000D03*
X81935000Y-49790000D03*
X81935000Y-49290000D03*
X81935000Y-48790000D03*
D15*
X82870000Y-48355000D03*
X83370000Y-48355000D03*
X83370000Y-51225000D03*
X82870000Y-51225000D03*
%TD*%
D14*
%TO.C,U1*%
X84305000Y-30790000D03*
X84305000Y-31290000D03*
X84305000Y-31790000D03*
X84305000Y-32290000D03*
X84305000Y-32790000D03*
X81935000Y-32790000D03*
X81935000Y-32290000D03*
X81935000Y-31790000D03*
X81935000Y-31290000D03*
X81935000Y-30790000D03*
D15*
X82870000Y-30355000D03*
X83370000Y-30355000D03*
X83370000Y-33225000D03*
X82870000Y-33225000D03*
%TD*%
D16*
%TO.C,S1*%
X55620000Y-87190000D03*
X58120000Y-87190000D03*
X60620000Y-87190000D03*
X55620000Y-84390000D03*
X58120000Y-84390000D03*
X60620000Y-84390000D03*
%TD*%
D17*
%TO.C,R2*%
X89120000Y-84965000D03*
X89120000Y-86615000D03*
%TD*%
D18*
%TO.C,R1*%
X86120000Y-87295000D03*
X86120000Y-84285000D03*
%TD*%
D19*
%TO.C,Q1*%
X93120000Y-85790000D03*
X91120000Y-86740000D03*
X91120000Y-84840000D03*
%TD*%
D20*
%TO.C,J8*%
X65620000Y-29790000D03*
X66620000Y-29790000D03*
X67620000Y-29790000D03*
X68620000Y-29790000D03*
D21*
X69920000Y-25915000D03*
X64320000Y-25915000D03*
%TD*%
D22*
%TO.C,J5*%
X71500000Y-62190000D03*
X71500000Y-57110000D03*
X71500000Y-52030000D03*
X71500000Y-46950000D03*
X71500000Y-41870000D03*
X71500000Y-36790000D03*
X68200000Y-64730000D03*
X68200000Y-59650000D03*
X68200000Y-54570000D03*
X68200000Y-49490000D03*
X68200000Y-44410000D03*
X68200000Y-39330000D03*
%TD*%
%TO.C,J3*%
X51180000Y-64730000D03*
X51180000Y-59650000D03*
X51180000Y-54570000D03*
X51180000Y-49490000D03*
X51180000Y-44410000D03*
X51180000Y-39330000D03*
X47880000Y-67270000D03*
X47880000Y-62190000D03*
X47880000Y-57110000D03*
X47880000Y-52030000D03*
X47880000Y-46950000D03*
X47880000Y-41870000D03*
%TD*%
D23*
%TO.C,J1*%
X78870000Y-80840000D03*
X75370000Y-80840000D03*
%TD*%
D24*
%TO.C,C9*%
X79645000Y-72790000D03*
X82595000Y-72790000D03*
%TD*%
D25*
%TO.C,C8*%
X85895000Y-64790000D03*
X84345000Y-64790000D03*
%TD*%
D26*
%TO.C,C7*%
X80345000Y-64790000D03*
X81895000Y-64790000D03*
%TD*%
D24*
%TO.C,C6*%
X79645000Y-54790000D03*
X82595000Y-54790000D03*
%TD*%
D25*
%TO.C,C5*%
X85895000Y-46790000D03*
X84345000Y-46790000D03*
%TD*%
D26*
%TO.C,C4*%
X80345000Y-46790000D03*
X81895000Y-46790000D03*
%TD*%
D24*
%TO.C,C3*%
X79645000Y-36790000D03*
X82595000Y-36790000D03*
%TD*%
D25*
%TO.C,C2*%
X85895000Y-28790000D03*
X84345000Y-28790000D03*
%TD*%
D26*
%TO.C,C1*%
X80345000Y-28790000D03*
X81895000Y-28790000D03*
%TD*%
M02*
